<svg width="49" height="48" viewBox="0 0 49 48" fill="none" xmlns="http://www.w3.org/2000/svg">
<rect width="48" height="48" transform="translate(0.5)" fill="#81B3D2"/>
<g clip-path="url(#clip0_68460_652)">
<path fill-rule="evenodd" clip-rule="evenodd" d="M35.95 17.948C36.116 17.402 35.95 17 35.155 17H32.53C31.862 17 31.554 17.347 31.387 17.73C31.387 17.73 30.052 20.926 28.161 23.002C27.549 23.604 27.271 23.795 26.937 23.795C26.77 23.795 26.519 23.604 26.519 23.057V17.948C26.519 17.292 26.335 17 25.779 17H21.651C21.234 17 20.983 17.304 20.983 17.593C20.983 18.214 21.929 18.358 22.026 20.106V23.904C22.026 24.737 21.873 24.888 21.539 24.888C20.649 24.888 18.484 21.677 17.199 18.003C16.95 17.288 16.698 17 16.027 17H13.4C12.65 17 12.5 17.347 12.5 17.73C12.5 18.412 13.39 21.8 16.645 26.281C18.815 29.341 21.87 31 24.653 31C26.322 31 26.528 30.632 26.528 29.997V27.684C26.528 26.947 26.686 26.8 27.215 26.8C27.605 26.8 28.272 26.992 29.83 28.467C31.61 30.216 31.903 31 32.905 31H35.53C36.28 31 36.656 30.632 36.44 29.904C36.202 29.18 35.352 28.129 34.225 26.882C33.613 26.172 32.695 25.407 32.416 25.024C32.027 24.533 32.138 24.314 32.416 23.877C32.416 23.877 35.616 19.451 35.949 17.948H35.95Z" fill="white"/>
</g>
<defs>
<clipPath id="clip0_68460_652">
<rect width="24" height="24" fill="white" transform="translate(12.5 12)"/>
</clipPath>
</defs>
</svg>
